<?xml version="1.0" standalone="no"?>
<!DOCTYPE svg PUBLIC "-//W3C//DTD SVG 20010904//EN"
 "http://www.w3.org/TR/2001/REC-SVG-20010904/DTD/svg10.dtd">
<svg version="1.0" xmlns="http://www.w3.org/2000/svg"
 width="700.000000pt" height="700.000000pt" viewBox="0 0 700.000000 700.000000"
 preserveAspectRatio="xMidYMid meet">
<metadata>
Created by potrace 1.11, written by Peter Selinger 2001-2013
</metadata>
<g transform="translate(0.000000,700.000000) scale(0.100000,-0.100000)"
fill="#000000" stroke="none">
<path d="M2968 6025 c-1 -1 -48 -5 -103 -8 -311 -17 -621 -150 -857 -367 -77
-70 -94 -109 -75 -167 19 -58 85 -93 144 -78 12 3 51 30 85 61 177 158 362
251 583 293 371 70 740 -40 1035 -308 68 -62 132 -66 182 -13 60 63 50 121
-35 202 -177 171 -467 320 -695 356 -19 3 -44 8 -56 10 -11 2 -57 7 -101 10
-44 3 -85 7 -92 9 -6 2 -13 2 -15 0z"/>
<path d="M5270 5773 c-177 -27 -330 -157 -391 -334 l-22 -64 0 -1980 c0 -1513
2 -1993 12 -2035 17 -80 67 -172 124 -231 60 -61 106 -91 185 -122 l57 -22
695 0 695 0 60 24 c154 62 258 179 299 337 14 53 16 273 16 2029 0 1589 -3
1981 -13 2025 -43 178 -176 313 -357 361 -58 15 -128 17 -700 16 -349 0 -646
-2 -660 -4z"/>
<path d="M2875 5384 c-11 -2 -45 -9 -75 -16 -40 -8 -372 -12 -1220 -13 -866
-2 -1178 -5 -1215 -14 -167 -41 -320 -197 -355 -364 -7 -36 -10 -515 -8 -1587
3 -1471 4 -1537 22 -1585 56 -151 179 -266 331 -311 56 -17 155 -18 1570 -19
1210 0 1522 2 1568 13 188 42 328 181 372 368 9 39 11 424 10 1580 l-1 1529
-22 59 c-56 152 -166 258 -317 307 -55 17 -95 22 -214 24 -80 1 -165 8 -189
14 -43 12 -219 22 -257 15z"/>
</g>
</svg>
