<svg xmlns="http://www.w3.org/2000/svg" enable-background="new 0 0 464.003 464.003" height="512px" viewBox="0 0 464.003 464.003" width="512px" class="">
    <path d="m257.003 141.174v193c0 17.67-14.33 32-32 32h-193c-17.67 0-32-14.33-32-32v-193c0-17.67 14.33-32 32-32h193c17.67 0 32 14.33 32 32z" fill="#d6f4fc" data-original="#7BC6FF" class="" style="fill:#7BC6FF" data-old_color="#d6f4fc"/>
    <path d="m225.123 149.174h-29.119c-86.156 0-156 69.844-156 156v29.12c0 25.762-38.768 27.127-39.965 1.393-.055-1.177-.035-195.52-.035-194.512 0-17.673 14.327-32 32-32h193c27.502-.001 26.189 39.999.119 39.999z" fill="#e8f8fc" data-original="#AEDDFF" class="" style="fill:#AEDDFF" data-old_color="#e8f8fc"/>
    <path d="m432.003 81.174h-78c-17.67 0-32 14.33-32 32v254c0 17.67 14.33 32 32 32h78c17.679 0 32-14.32 32-32v-254c0-17.67-14.33-32-32-32z" fill="#d6f4fc" data-original="#7BC6FF" class="" style="fill:#7BC6FF" data-old_color="#d6f4fc"/>
    <g fill="#42434d">
        <path d="m360.164 253.734c-.885-4.089 1.792-8.519 6.279-9.4 4.873-.993 9.561 2.757 9.561 7.84 0 3.797-2.694 7.106-6.44 7.84-4.083.881-8.523-1.787-9.4-6.28z" data-original="#1867C0" class="" style="fill:#1867C0" data-old_color="#42434D"/>
        <path d="m410.164 253.734c-.884-4.086 1.788-8.518 6.279-9.4 4.964-1.012 9.561 2.838 9.561 7.84 0 3.729-2.623 7.092-6.44 7.84-4.092.883-8.525-1.797-9.4-6.28z" data-original="#1867C0" class="" style="fill:#1867C0" data-old_color="#42434D"/>
        <path d="m360.613 294.114c.597-1.432 1.591-2.693 2.95-3.59 5.891-3.967 13.772 1.317 12.28 8.21-.613 3.138-3.076 5.652-6.28 6.28-6.005 1.297-11.46-4.853-8.95-10.9z" data-original="#1867C0" class="" style="fill:#1867C0" data-old_color="#42434D"/>
        <path d="m413.563 303.824c-5.855-3.864-4.156-13.108 2.88-14.49 6.973-1.421 12.161 6.423 8.21 12.28-2.371 3.595-7.375 4.711-11.09 2.21z" data-original="#1867C0" class="" style="fill:#1867C0" data-old_color="#42434D"/><path d="m363.563 348.824c-4.771-3.149-4.705-10.195 0-13.3 7.107-4.786 16.047 3.743 11.09 11.09-2.397 3.635-7.414 4.685-11.09 2.21z" data-original="#1867C0" class="" style="fill:#1867C0" data-old_color="#42434D"/>
        <path d="m410.164 340.614c1.815-9.294 15.84-8.137 15.84 1.56 0 3.729-2.623 7.092-6.44 7.84-5.488 1.185-10.592-3.892-9.4-9.4z" data-original="#1867C0" class="" style="fill:#1867C0" data-old_color="#42434D"/>
    </g>
    <path d="m393.003 198.174c-19.299 0-35-15.701-35-35s15.701-35 35-35 35 15.701 35 35-15.701 35-35 35zm0-54c-10.477 0-19 8.523-19 19s8.523 19 19 19 19-8.523 19-19-8.523-19-19-19z" fill="#2c2c33" data-original="#1867C0" class="" style="fill:#1867C0" data-old_color="#2c2c33"/>
    <path d="m113.003 211.174h-48c-4.418 0-8 3.582-8 8s3.582 8 8 8h16v48c0 4.418 3.582 8 8 8s8-3.582 8-8v-48h16c4.418 0 8-3.582 8-8s-3.582-8-8-8z" fill="#fff" data-original="#FFF" class=""/>
    <path d="m196.155 211.821c-4.059-1.74-8.764.14-10.505 4.202l-16.646 38.843-16.646-38.843c-1.741-4.061-6.441-5.943-10.505-4.202-4.061 1.74-5.942 6.444-4.202 10.505l24 56c2.76 6.44 11.938 6.461 14.707 0l24-56c1.739-4.062-.143-8.765-4.203-10.505z" fill="#fff" data-original="#FFF" class=""/>
    <path d="m206.943 169.474c-5.856 5.836-15.343 5.817-21.2 0-5.86-5.86-5.86-15.38-.01-21.23 7.523-7.497 20.354-5.042 24.48 4.86 2.207 5.295 1.269 11.831-3.27 16.37z" fill="#9fe2f5" data-original="#1697F6" class="active-path" style="fill:#1697F6" data-old_color="#9fe2f5"/>
    <path d="m159.579 133.403c-3.125-3.123-3.127-8.189-.003-11.314 20.318-20.332 53.213-20.333 73.545-.002 3.124 3.124 3.124 8.189 0 11.314-3.125 3.125-8.189 3.124-11.314 0-14.069-14.07-36.841-14.084-50.914-.002-3.122 3.124-8.187 3.128-11.314.004z" fill="#9fe2f5" data-original="#1697F6" class="active-path" style="fill:#1697F6" data-old_color="#9fe2f5"/>
    <path d="m251.506 103.701c-30.488-30.489-79.825-30.491-110.315 0-3.125 3.125-8.189 3.124-11.314 0-3.124-3.124-3.124-8.19 0-11.314 36.742-36.742 96.199-36.745 132.944 0 3.124 3.124 3.124 8.189 0 11.314-3.124 3.122-8.189 3.126-11.315 0z" fill="#9fe2f5" data-original="#1697F6" class="active-path" style="fill:#1697F6" data-old_color="#9fe2f5"/>
    <path d="m432.482 111.171c-3.225 0-6.788.001-10.728.001-38.519.004-69.751 31.239-69.751 69.758-.001 104.04-.007 158.312-.004 186.682.002 19.466-29.996 20.745-29.996-.439v-254c0-17.673 14.327-32 32-32 83.404 0 78.372-.016 79.442.032 19.339.859 18.394 29.964-.963 29.966z" fill="#e8f8fc" data-original="#AEDDFF" class="" style="fill:#AEDDFF" data-old_color="#e8f8fc"/>
</svg>
